<svg width="512" height="512" viewBox="0 0 24 24" fill="none" xmlns="http://www.w3.org/2000/svg">
  <path 
    d="M12 4.5a2.5 2.5 0 0 0-4.96-.46 2.5 2.5 0 0 0-1.98 3 2.5 2.5 0 0 0-1.32 4.24 3 3 0 0 0 .34 5.58 2.5 2.5 0 0 0 2.96 3.08 2.5 2.5 0 0 0 4.91.05L12 20V4.5Z" 
    stroke="#3366CC" 
    stroke-width="1.5" 
  />
  <path 
    d="M16 8.5a2.5 2.5 0 0 1 4.96-.46 2.5 2.5 0 0 1 1.98 3 2.5 2.5 0 0 1 1.32 4.24 3 3 0 0 1-.34 5.58 2.5 2.5 0 0 1-2.96 3.08 2.5 2.5 0 0 1-4.91.05L16 24V8.5Z" 
    stroke="#FF9900" 
    stroke-width="1.5" 
  />
  <path 
    d="M5 14.5v-2c0-1.5 1.5-3 3-3s3 1.5 3 3v2M5 14.5c0 1.5 1.5 3 3 3s3-1.5 3-3M19 14.5v-2c0-1.5-1.5-3-3-3s-3 1.5-3 3v2M19 14.5c0 1.5-1.5 3-3 3s-3-1.5-3-3" 
    stroke="#3366CC" 
    stroke-width="1.5" 
  />
</svg>